<?xml version="1.0" encoding="utf-8"?>
<!-- Generator: Adobe Illustrator 13.0.0, SVG Export Plug-In  -->
<!DOCTYPE svg PUBLIC "-//W3C//DTD SVG 1.1//EN" "http://www.w3.org/Graphics/SVG/1.1/DTD/svg11.dtd" [
	<!ENTITY ns_flows "http://ns.adobe.com/Flows/1.0/">
]>
<svg version="1.1"
	 xmlns="http://www.w3.org/2000/svg" xmlns:xlink="http://www.w3.org/1999/xlink" xmlns:a="http://ns.adobe.com/AdobeSVGViewerExtensions/3.0/"
	 x="0px" y="0px" width="797px" height="216px" viewBox="0 0 797 216" enable-background="new 0 0 797 216" xml:space="preserve">
<defs>
</defs>
<path fill="#FFFFFF" d="M108,0.2C48.5,0.2,0.2,48.5,0.2,108c0,59.5,48.2,107.8,107.7,107.8c59.5,0,107.8-48.2,107.8-107.8
	C215.8,48.5,167.5,0.2,108,0.2z"/>
<linearGradient id="SVGID_1_" gradientUnits="userSpaceOnUse" x1="314.9995" y1="-384.9995" x2="314.9995" y2="-169" gradientTransform="matrix(1 0 0 -1 -207 -169)">
	<stop  offset="0" style="stop-color:#C2CE88"/>
	<stop  offset="1" style="stop-color:#D1D8AE"/>
</linearGradient>
<path fill="url(#SVGID_1_)" d="M108,0C48.4,0,0,48.4,0,108c0,59.6,48.4,108,108,108c59.6,0,108-48.4,108-108C216,48.4,167.6,0,108,0
	z M18.5,117.1l-5.9-3.1l-5.9,3.1l1.1-6.6L3,105.8l6.6-1l3-6l3,6l6.6,1l-4.8,4.7L18.5,117.1z M108,192c-46.4,0-84-37.6-84-84
	c0-46.4,37.6-84,84-84c46.4,0,84,37.6,84,84C192,154.4,154.4,192,108,192z M204.6,114l-5.9,3.1l1.1-6.6l-4.8-4.7l6.6-1l3-6l3,6
	l6.6,1l-4.8,4.7l1.1,6.6L204.6,114z"/>
<polygon fill="#F1CF95" points="64,130.6 152,131.6 109.9,146.2 140.4,155.6 105.4,163.6 119.5,155.6 78.1,146 115.9,136.4 "/>
<path fill="#E1A22E" d="M153,113.5c6.1,0.4,5.8-5.6,10-7c0.1,1.8-5.1,3.4-2,5c2.8-1.9,5.5-3.9,8-6c0.1,1.1-1.5,1.6,0,2
	c1.5-1,5.4-4.5,6-3c-1.6,3.6-13.3,4.8-9,8c-5-0.7-7.3,1.4-11,2c9.4,8.8,21.4-4.2,23-13C164.9,100.8,154.7,102.8,153,113.5z M81,97.5
	c-4-4.4-7.9-8.8-13-12c0.6,0.3,3.9,2.5,4,0c-3.3-3.4-8.2-10.5-7-15c1.2,3.1,3.3,11.6,6,7c-0.2,6.2,3,9,6,12c1.4-3.5-2.8-6.4,0-8
	c0.9,5.4,2,10.7,4,15c10.7-11.9-7.5-26.3-18-30C57.9,80.5,64.7,102,81,97.5z M105,89.5c4.4-7.3-5.2-13.9-2-20c0.5,3.8,1.2,7.5,4,9
	c1.8-8.4-1.1-14.2-1-19c-0.1,1.7,0.8,2.6,2,3c0.6-4.7-1.3-12,1-15c2.1,9,0,15.9,2,25c0-1.8,2.6-5.9,3-4c-4.1,5.3-5.6,13.1-7,21
	c21.5-2.9,13.1-41.5-1-46C98.4,53.7,87.4,82.5,105,89.5z M49,111.5c1.2-0.2,2.8,0.2,3-1c-5-1-8.6-3.4-11-7c7.5,3.6,12.5,7.3,21,10
	c-0.6-11.4-11.7-12.3-24-12c2.1,10.1,10,19,23,15C60.4,111.4,52.3,113.9,49,111.5z M139,83.5c1.2,2.7-1.9,5.9,0,6
	c3.1-2.9,4.9-7.1,6-12c2.2,4.7,4.5-6.5,7-8c-0.9,7.2-7.8,13.5-8,18c0.1-0.8,3.3-3,3-1c-5.1,2.9-9.6,6.4-12,12
	c17.3,1.2,21.2-16,18-32c-11.4,5-24.9,12.9-21,30C138.6,96.5,135.6,86.7,139,83.5z M108,98c-22.8,0-42.2,12.8-49.2,30.7h98.4
	C150.2,110.8,130.8,98,108,98z"/>
<path fill="#FFFFFF" d="M277.2,100.3c-9.5-3.3-11.6-4.3-11.6-9.4c0-2.9,1.4-4.8,2.8-5.8c1.6-1.2,3.6-1.8,6-1.8c2,0,4,0.6,5.2,1.6
	c0.2,0.2,0.3,0.4,0.4,0.7l2.3,9.5c3.5-0.4,7.2-0.8,10.4-1.3c-0.4-6.1-0.8-12.4-1.4-18.5c-2.4-1.1-7.8-1.9-13.7-1.9
	c-9.7,0-17.1,2.4-21.6,6.5c-4,3.6-6.9,8.9-6.9,15.2c0,10,7.9,16.2,18.2,20.1c7.8,3,10.4,4,10.4,9.1c0,2.4-0.9,4.3-2.4,5.5
	c-1.6,1.4-4.6,2-7,2c-2.5,0-5-0.6-6.7-1.9c-0.3-0.2-0.5-0.6-0.6-0.9l-2.9-10.1c-3.5,0.4-7.4,1.1-10.7,1.8c0.7,6.2,1.4,12.5,2.2,18.9
	c4.2,1.5,11.3,2,15.6,2c10,0,16.6-1.9,21.6-5.8c4.9-3.9,7.5-9.9,7.5-16.3C294.3,109.9,288.4,104.2,277.2,100.3z M347.4,130.8
	c0-11.7,0.2-23.9,0.3-34.7c0-0.1-0.1-0.4-0.2-0.4c-1.5,0-17.6,0.3-21.4,0.4c-0.1,2.8-0.2,5.8-0.2,8.7l5,0.2c0,6.2,0.1,16.3,0,23.2
	c-1.9,1.4-4.4,2.1-6.1,2.1c-1.4,0-2.8-0.1-4-2.1c-1.3-2.1-1.2-5.7-1.2-8.7c0-7.4,0.2-16.4,0.3-23.5c0-0.1-0.1-0.4-0.3-0.4
	c-1.4,0.1-16.4,0.5-20.7,0.7c0,2.6-0.1,5.6-0.1,8.4l4.5,0.2c0,6.6-0.1,14.7-0.1,22.4c0,6.2,7.6,14.4,13.9,14.4c4.1,0,6-0.3,14.5-5.1
	v0h0.5c1.7,2.4,3.2,4,4.7,5.1c6.7,0,15.7-1.4,16.7-1.9c0-2.8,0.1-5.8,0.1-8.5l-5.7,0.2C347.5,131.4,347.4,131.2,347.4,130.8z
	 M392.4,94.6c-4.3,0-5.4,0.4-15.7,5.9l-0.6-0.1c-0.4-1.9-0.7-3.8-1.1-5.7c0-0.1,0-0.2-0.2-0.2c-0.5,0-15.9,2.6-20.7,3.3
	c-0.1,2.6-0.2,5.6-0.2,8.4l6.4,0.1l-0.1,49.2c0,0.3-0.1,0.5-0.4,0.5l-4.9,0.4c-0.1,2.8-0.1,5.7-0.1,8.4c4.1-0.1,9.4-0.1,13.4-0.1
	c5.4-0.1,11.5-0.1,16.4-0.1c0.1-2.6,0.1-5.6,0.1-8.4l-8.3-0.3c0-5.2,0-10.4-0.1-15.5l0.7-0.2c2.2,0.9,5.1,1.4,9,1.4
	c4.1,0,8.9-1.7,10.9-3.3c4-3.1,6.4-6.8,7.7-9.9c1.9-4.3,3.2-9.1,3.2-13.7C408,104.2,400.9,94.6,392.4,94.6z M390.5,118.6
	c0,5.3-0.9,9-2.3,11.1c-1.3,1.9-3.4,2.6-5.2,2.6c-2.1,0-6.2-1.5-6.2-3.6c0-5.7,0.1-13.8,0.2-19.6c3-1.8,5.9-2.8,7.9-2.8
	c1.9,0,3.2,1.3,4,2.5c1,1.5,1.6,4.8,1.6,9.5L390.5,118.6z M456.7,115.9c0-6.6-1.9-11.9-5.2-15.8c-2.8-3.2-7.5-5.5-13.9-5.5
	c-15.3,0-25.7,11.4-25.7,25.9v0h0v0.1c0,14.4,10.3,21,23.8,21c4.9,0,13.9-2,19.8-4.8c-0.4-2.5-1.1-5.7-1.9-8.4
	c-3.3,1.1-9.9,2.8-14.4,2.8c-2.5,0-5.2-0.2-7.5-2.4c-1.3-1.2-2.5-3.3-2.8-6.6c9.1,0,19.5,0,22.2-0.3
	C452,121.7,456.6,117.3,456.7,115.9z M440.5,113.7c-3,0.1-7.9,0.2-11.5,0.2c-0.1-4.1,0.6-6,1.8-8c1.4-2.2,3.2-2.8,4.8-2.8h0.1
	c2.1,0,3.7,1.2,4.5,3.1c0.8,1.6,1.2,4.3,1.2,6.4C441.4,113.3,441.1,113.7,440.5,113.7z M496.5,94.5c-5.1,0-7.4,1.4-13.8,13.4
	l-0.7-0.1c-0.3-4.4-0.6-8.7-0.9-12.9c0-0.2-0.1-0.3-0.2-0.3c-0.6,0-15.7,2.2-20.3,2.8c-0.1,2.5-0.2,5.6-0.2,8.4l6,0.2v25.7
	c0,0.2-0.2,0.4-0.4,0.4l-4.8,0.3c-0.1,2.5-0.1,5.6-0.1,8.3c4.3,0,10-0.1,14.4-0.1H491c0.1-2.6,0.2-5.6,0.2-8.3l-8.5-0.3
	c0-1.5,0-3.9,0.1-5.6c0-3,0.2-6.2,1.5-8.7c1.9-3.7,3.4-5.6,5.3-7.1c0.9-0.7,1.8-0.9,2.9-0.9c2.4,0,5.6,0.9,6.5,1
	c1.8-1.7,4.8-10,4.8-14.7C501.7,95.1,498.9,94.5,496.5,94.5z M531.4,80.7c3.1,0,7.8,2.3,8.8,2.6c2.1-1.3,5.1-7.5,5.1-11.4
	c-2.2-0.9-6.2-1.8-11.1-1.8c-5,0-11,1.1-17.5,7.7c-4.6,4.7-6,8.5-6,17.4c0,0.6-0.2,0.7-0.6,0.8c-1.7,0.1-4.1,0.2-6,0.2
	c-0.1,2.8-0.2,5.9-0.2,9h7c0.1,8.4,0.1,17.8,0.1,26.1c0,0.2-0.2,0.4-0.4,0.5l-5,0.3c-0.1,2.8-0.1,5.5-0.1,8.4c4,0,9.2-0.1,13.4-0.1
	h17.4c0.1-2.8,0.2-5.6,0.2-8.4l-9.2-0.3c0-7.5,0.1-19.3,0.1-26.4h12.6c0.2-3,0.3-6.5,0.3-9.5c-3.8,0-8.6,0.1-12.9,0.1
	c0-9.7,0.1-11.6,0.7-13.5C528.5,81,529.8,80.7,531.4,80.7z M582.4,98.4c-3.9-2.4-8.6-3.8-14-3.8c-6,0-12.1,1.6-16.5,4.9
	c-6.2,4.6-9.8,11.8-9.8,19.9c0,7.8,2.9,13.3,7.5,17.3c4.1,3.6,10.2,4.9,16.1,4.9h0v0h0.1c5.8,0,10.9-1.3,14.8-3.9
	c6.1-3.9,11-11.5,11-20.5C591.7,108.1,587.7,101.7,582.4,98.4z M571.6,131.3c-1.2,1.8-2.9,2.3-4.5,2.3h-0.1c-1.8,0-3.4-0.7-4.6-2.8
	c-1.5-2.1-2.4-5.6-2.4-13.1c0-6.2,1-10.2,2.8-12.6c1.2-1.8,2.9-2.4,4.6-2.4c1.8,0,3.8,1,4.8,3.2c1,2.3,1.8,5.5,1.8,11.7
	C574,124.4,573.6,128.5,571.6,131.3z M636,98.4c-3.9-2.4-8.6-3.8-14-3.8c-6,0-12.1,1.6-16.5,4.9c-6.2,4.6-9.8,11.8-9.8,19.9
	c0,7.8,2.9,13.3,7.5,17.3c4.1,3.6,10.2,4.9,16.1,4.9v0h0.1c5.8,0,10.9-1.3,14.8-3.9c6.1-3.9,11-11.5,11-20.5
	C645.3,108.1,641.3,101.7,636,98.4z M625.2,131.3c-1.2,1.8-2.9,2.3-4.5,2.3h-0.1c-1.8,0-3.4-0.7-4.6-2.8c-1.5-2.1-2.4-5.6-2.4-13.1
	c0-6.2,1-10.2,2.8-12.6c1.2-1.8,2.9-2.4,4.6-2.4c1.8,0,3.8,1,4.8,3.2c1,2.3,1.8,5.5,1.8,11.7C627.6,124.4,627.2,128.5,625.2,131.3z
	 M697.5,131.5c-0.4,0-0.6-0.4-0.6-1c0-18.5,0.4-44.5,0.4-60.8c0-0.2-0.2-0.3-0.3-0.3c-1.1,0-18.1,2.1-24.1,2.6c0,2.8-0.1,5.7,0,8.6
	l7.6,0.2c0.1,5.1,0.2,10.3,0.3,14.9l-0.7,0.3c-1.9-0.6-5.1-1.3-8.8-1.3c-4.5,0-10.4,2-14.1,6.1c-5.2,5.6-7.8,12.4-7.8,20.3
	c0,6.6,2.6,12.2,6.2,15.7c3.7,3.7,7.9,4.9,11.9,4.9c2.4,0,4.7-0.3,13.8-4.6v0h0.7c1,1.9,2.1,3.5,3.7,4.6c6.9,0,15.7-1.4,17.1-2
	c0-2.6,0-5.8-0.1-8.4L697.5,131.5z M680.4,127.4v0.1c0,1-0.1,1.5-0.4,1.7c-2.7,1.4-4.5,1.8-6.5,1.8c-1.8,0-3.8-1.4-4.6-2.6
	c-1.4-2.2-2-5.2-2-9.3c0-6.2,0.9-9.6,2.4-12c1.2-1.9,3.2-2.6,5.1-2.6c2.4,0,4.7,0.7,6.1,1.4C680.4,112.5,680.4,120.8,680.4,127.4
	L680.4,127.4z M714.6,127.8L714.6,127.8c-4.5,0-7.3,3.3-7.3,6.8c0,4.1,3.5,6.8,6.8,6.8c4.2,0,7.2-2.7,7.2-6.9
	C721.4,130.8,718.9,127.8,714.6,127.8z M768.9,117c0-2.3-0.3-4.7-1.9-7.3c-1.6-2.8-5-5.9-8.5-5.9c-3.7,0-5.5,0.7-13.4,5.5l-0.4-0.1
	c-0.4-1.7-0.7-3.3-1.1-5.1c0-0.2-0.1-0.2-0.2-0.2c-0.5,0-12.6,2.1-16.6,2.4c0,2.1-0.1,4.5-0.1,6.7l5.1,0.2v20.1
	c0,0.2-0.1,0.3-0.3,0.3l-4,0.2c0,2.1-0.1,4.6-0.1,6.7c3.2,0,7.4-0.1,10.8-0.1h10.2c0.1-2.1,0.1-4.5,0.1-6.7l-3.5-0.2
	c0-4.6,0.2-12.4,0.2-17.2c2-1.5,4.7-2.8,6.5-2.8c1.2,0,2.3,0.2,3.1,1.7c0.6,1.2,0.6,3.2,0.6,7c0,3.2,0.1,7.7,0,11
	c0,0.2-0.2,0.3-0.3,0.3l-3.3,0.2c0,2.1-0.1,4.6-0.1,6.7c2.9,0,6.7-0.1,10.2-0.1h10.5c0.1-2.1,0.1-4.6,0.1-6.7l-4.1-0.2
	C768.7,128.4,768.9,121.5,768.9,117z M792.1,133.6c0.1-15.2,0.2-36.2,0.3-49.7c0-0.2-0.1-0.3-0.2-0.3c-0.8,0-14.2,1.7-18.7,2.2
	c-0.1,2.1-0.2,4.6-0.2,6.8l5.5,0.3v40.4c0,0.2-0.1,0.3-0.2,0.3l-4.4,0.2v6.7c3.3,0,7.7-0.1,11.2-0.1h11.3v-6.7L792.1,133.6z"/>
<path fill="#B1693C" d="M275.2,98.3c-9.5-3.3-11.6-4.3-11.6-9.4c0-2.9,1.4-4.8,2.8-5.8c1.6-1.2,3.6-1.8,6-1.8c2,0,4,0.6,5.2,1.6
	c0.2,0.2,0.3,0.4,0.4,0.7l2.3,9.5c3.5-0.4,7.2-0.8,10.4-1.3c-0.4-6.1-0.8-12.4-1.4-18.5c-2.4-1.1-7.8-1.9-13.7-1.9
	c-9.7,0-17.1,2.4-21.6,6.5c-4,3.6-6.9,8.9-6.9,15.2c0,10,7.9,16.2,18.2,20.1c7.8,3,10.4,4,10.4,9.1c0,2.4-0.9,4.3-2.4,5.5
	c-1.6,1.4-4.6,2-7,2c-2.5,0-5-0.6-6.7-1.9c-0.3-0.2-0.5-0.6-0.6-0.9l-2.9-10.1c-3.5,0.4-7.4,1.1-10.7,1.8c0.7,6.2,1.4,12.5,2.2,18.9
	c4.2,1.5,11.3,2,15.6,2c10,0,16.6-1.9,21.6-5.8c4.9-3.9,7.5-9.9,7.5-16.3C292.3,107.9,286.4,102.2,275.2,98.3z M345.4,128.8
	c0-11.7,0.2-23.9,0.3-34.7c0-0.1-0.1-0.4-0.2-0.4c-1.5,0-17.6,0.3-21.4,0.4c-0.1,2.8-0.2,5.8-0.2,8.7l5,0.2c0,6.2,0.1,16.3,0,23.2
	c-1.9,1.4-4.4,2.1-6.1,2.1c-1.4,0-2.8-0.1-4-2.1c-1.3-2.1-1.2-5.7-1.2-8.7c0-7.4,0.2-16.4,0.3-23.5c0-0.1-0.1-0.4-0.3-0.4
	c-1.4,0.1-16.4,0.5-20.7,0.7c0,2.6-0.1,5.6-0.1,8.4l4.5,0.2c0,6.6-0.1,14.7-0.1,22.4c0,6.2,7.6,14.4,13.9,14.4c4.1,0,6-0.3,14.5-5.1
	v0h0.5c1.7,2.4,3.2,4,4.7,5.1c6.7,0,15.7-1.4,16.7-1.9c0-2.8,0.1-5.8,0.1-8.5l-5.7,0.2C345.5,129.4,345.4,129.2,345.4,128.8z
	 M390.4,92.6c-4.3,0-5.4,0.4-15.7,5.9l-0.6-0.1c-0.4-1.9-0.7-3.8-1.1-5.7c0-0.1,0-0.2-0.2-0.2c-0.5,0-15.9,2.6-20.7,3.3
	c-0.1,2.6-0.2,5.6-0.2,8.4l6.4,0.1l-0.1,49.2c0,0.3-0.1,0.5-0.4,0.5l-4.9,0.4c-0.1,2.8-0.1,5.7-0.1,8.4c4.1-0.1,9.4-0.1,13.4-0.1
	c5.4-0.1,11.5-0.1,16.4-0.1c0.1-2.6,0.1-5.6,0.1-8.4l-8.3-0.3c0-5.2,0-10.4-0.1-15.5l0.7-0.2c2.2,0.9,5.1,1.4,9,1.4
	c4.1,0,8.9-1.7,10.9-3.3c4-3.1,6.4-6.8,7.7-9.9c1.9-4.3,3.2-9.1,3.2-13.7C406,102.2,398.9,92.6,390.4,92.6z M388.5,116.6
	c0,5.3-0.9,9-2.3,11.1c-1.3,1.9-3.4,2.6-5.2,2.6c-2.1,0-6.2-1.5-6.2-3.6c0-5.7,0.1-13.8,0.2-19.6c3-1.8,5.9-2.8,7.9-2.8
	c1.9,0,3.2,1.3,4,2.5c1,1.5,1.6,4.8,1.6,9.5L388.5,116.6z M454.7,113.9c0-6.6-1.9-11.9-5.2-15.8c-2.8-3.2-7.5-5.5-13.9-5.5
	c-15.3,0-25.7,11.4-25.7,25.9v0h0v0.1c0,14.4,10.3,21,23.8,21c4.9,0,13.9-2,19.8-4.8c-0.4-2.5-1.1-5.7-1.9-8.4
	c-3.3,1.1-9.9,2.8-14.4,2.8c-2.5,0-5.2-0.2-7.5-2.4c-1.3-1.2-2.5-3.3-2.8-6.6c9.1,0,19.5,0,22.2-0.3
	C450,119.7,454.6,115.3,454.7,113.9z M438.5,111.7c-3,0.1-7.9,0.2-11.5,0.2c-0.1-4.1,0.6-6,1.8-8c1.4-2.2,3.2-2.8,4.8-2.8h0.1
	c2.1,0,3.7,1.2,4.5,3.1c0.8,1.6,1.2,4.3,1.2,6.4C439.4,111.3,439.1,111.7,438.5,111.7z M494.5,92.5c-5.1,0-7.4,1.4-13.8,13.4
	l-0.7-0.1c-0.3-4.4-0.6-8.7-0.9-12.9c0-0.2-0.1-0.3-0.2-0.3c-0.6,0-15.7,2.2-20.3,2.8c-0.1,2.5-0.2,5.6-0.2,8.4l6,0.2v25.7
	c0,0.2-0.2,0.4-0.4,0.4l-4.8,0.3c-0.1,2.5-0.1,5.6-0.1,8.3c4.3,0,10-0.1,14.4-0.1H489c0.1-2.6,0.2-5.6,0.2-8.3l-8.5-0.3
	c0-1.5,0-3.9,0.1-5.6c0-3,0.2-6.2,1.5-8.7c1.9-3.7,3.4-5.6,5.3-7.1c0.9-0.7,1.8-0.9,2.9-0.9c2.4,0,5.6,0.9,6.5,1
	c1.8-1.7,4.8-10,4.8-14.7C499.7,93.1,496.9,92.5,494.5,92.5z M529.4,78.7c3.1,0,7.8,2.3,8.8,2.6c2.1-1.3,5.1-7.5,5.1-11.4
	c-2.2-0.9-6.2-1.8-11.1-1.8c-5,0-11,1.1-17.5,7.7c-4.6,4.7-6,8.5-6,17.4c0,0.6-0.2,0.7-0.6,0.8c-1.7,0.1-4.1,0.2-6,0.2
	c-0.1,2.8-0.2,5.9-0.2,9h7c0.1,8.4,0.1,17.8,0.1,26.1c0,0.2-0.2,0.4-0.4,0.5l-5,0.3c-0.1,2.8-0.1,5.5-0.1,8.4c4,0,9.2-0.1,13.4-0.1
	h17.4c0.1-2.8,0.2-5.6,0.2-8.4l-9.2-0.3c0-7.5,0.1-19.3,0.1-26.4h12.6c0.2-3,0.3-6.5,0.3-9.5c-3.8,0-8.6,0.1-12.9,0.1
	c0-9.7,0.1-11.6,0.7-13.5C526.5,79,527.8,78.7,529.4,78.7z M580.4,96.4c-3.9-2.4-8.6-3.8-14-3.8c-6,0-12.1,1.6-16.5,4.9
	c-6.2,4.6-9.8,11.8-9.8,19.9c0,7.8,2.9,13.3,7.5,17.3c4.1,3.6,10.2,4.9,16.1,4.9h0v0h0.1c5.8,0,10.9-1.3,14.8-3.9
	c6.1-3.9,11-11.5,11-20.5C589.7,106.1,585.7,99.7,580.4,96.4z M569.6,129.3c-1.2,1.8-2.9,2.3-4.5,2.3h-0.1c-1.8,0-3.4-0.7-4.6-2.8
	c-1.5-2.1-2.4-5.6-2.4-13.1c0-6.2,1-10.2,2.8-12.6c1.2-1.8,2.9-2.4,4.6-2.4c1.8,0,3.8,1,4.8,3.2c1,2.3,1.8,5.5,1.8,11.7
	C572,122.4,571.6,126.5,569.6,129.3z M634,96.4c-3.9-2.4-8.6-3.8-14-3.8c-6,0-12.1,1.6-16.5,4.9c-6.2,4.6-9.8,11.8-9.8,19.9
	c0,7.8,2.9,13.3,7.5,17.3c4.1,3.6,10.2,4.9,16.1,4.9v0h0.1c5.8,0,10.9-1.3,14.8-3.9c6.1-3.9,11-11.5,11-20.5
	C643.3,106.1,639.3,99.7,634,96.4z M623.2,129.3c-1.2,1.8-2.9,2.3-4.5,2.3h-0.1c-1.8,0-3.4-0.7-4.6-2.8c-1.5-2.1-2.4-5.6-2.4-13.1
	c0-6.2,1-10.2,2.8-12.6c1.2-1.8,2.9-2.4,4.6-2.4c1.8,0,3.8,1,4.8,3.2c1,2.3,1.8,5.5,1.8,11.7C625.6,122.4,625.2,126.5,623.2,129.3z
	 M695.5,129.5c-0.4,0-0.6-0.4-0.6-1c0-18.5,0.4-44.5,0.4-60.8c0-0.2-0.2-0.3-0.3-0.3c-1.1,0-18.1,2.1-24.1,2.6c0,2.8-0.1,5.7,0,8.6
	l7.6,0.2c0.1,5.1,0.2,10.3,0.3,14.9l-0.7,0.3c-1.9-0.6-5.1-1.3-8.8-1.3c-4.5,0-10.4,2-14.1,6.1c-5.2,5.6-7.8,12.4-7.8,20.3
	c0,6.6,2.6,12.2,6.2,15.7c3.7,3.7,7.9,4.9,11.9,4.9c2.4,0,4.7-0.3,13.8-4.6v0h0.7c1,1.9,2.1,3.5,3.7,4.6c6.9,0,15.7-1.4,17.1-2
	c0-2.6,0-5.8-0.1-8.4L695.5,129.5z M678.4,125.4v0.1c0,1-0.1,1.5-0.4,1.7c-2.7,1.4-4.5,1.8-6.5,1.8c-1.8,0-3.8-1.4-4.6-2.6
	c-1.4-2.2-2-5.2-2-9.3c0-6.2,0.9-9.6,2.4-12c1.2-1.9,3.2-2.6,5.1-2.6c2.4,0,4.7,0.7,6.1,1.4C678.4,110.5,678.4,118.8,678.4,125.4
	L678.4,125.4z M712.6,125.8L712.6,125.8c-4.5,0-7.3,3.3-7.3,6.8c0,4.1,3.5,6.8,6.8,6.8c4.2,0,7.2-2.7,7.2-6.9
	C719.4,128.8,716.9,125.8,712.6,125.8z M766.9,115c0-2.3-0.3-4.7-1.9-7.3c-1.6-2.8-5-5.9-8.5-5.9c-3.7,0-5.5,0.7-13.4,5.5l-0.4-0.1
	c-0.4-1.7-0.7-3.3-1.1-5.1c0-0.2-0.1-0.2-0.2-0.2c-0.5,0-12.6,2.1-16.6,2.4c0,2.1-0.1,4.5-0.1,6.7l5.1,0.2v20.1
	c0,0.2-0.1,0.3-0.3,0.3l-4,0.2c0,2.1-0.1,4.6-0.1,6.7c3.2,0,7.4-0.1,10.8-0.1h10.2c0.1-2.1,0.1-4.5,0.1-6.7l-3.5-0.2
	c0-4.6,0.2-12.4,0.2-17.2c2-1.5,4.7-2.8,6.5-2.8c1.2,0,2.3,0.2,3.1,1.7c0.6,1.2,0.6,3.2,0.6,7c0,3.2,0.1,7.7,0,11
	c0,0.2-0.2,0.3-0.3,0.3l-3.3,0.2c0,2.1-0.1,4.6-0.1,6.7c2.9,0,6.7-0.1,10.2-0.1h10.5c0.1-2.1,0.1-4.6,0.1-6.7l-4.1-0.2
	C766.7,126.4,766.9,119.5,766.9,115z M790.1,131.6c0.1-15.2,0.2-36.2,0.3-49.7c0-0.2-0.1-0.3-0.2-0.3c-0.8,0-14.2,1.7-18.7,2.2
	c-0.1,2.1-0.2,4.6-0.2,6.8l5.5,0.3v40.4c0,0.2-0.1,0.3-0.2,0.3l-4.4,0.2v6.7c3.3,0,7.7-0.1,11.2-0.1h11.3v-6.7L790.1,131.6z"/>
</svg>
